<svg width="128px" height="128px">

<path d=
"M40 40
q0-10 10-10
h5v-7a2.5 2.5 0 0 1 5 0v7h9v-7a2.5 2.5 0 0 1 5 0v7h9v-7a2.5 2.5 0 0 1 5 0v7h5
q10 0 10 10
v5h7a2.5 2.5 0 0 1 0 5h-7v9h7a2.5 2.5 0 0 1 0 5h-7v9h7a2.5 2.5 0 0 1 0 5h-7v5
q0 10-10 10
h-5v7a2.5 2.5 0 0 1-5 0v-7h-9v7a2.5 2.5 0 0 1-5 0v-7h-9v7a2.5 2.5 0 0 1-5 0v-7h-5
q-10 0-10-10
v-5h-7a2.5 2.5 0 0 1 0-5h7v-9h-7a2.5 2.5 0 0 1 0-5h7v-9h-7a2.5 2.5 0 0 1 0-5h7z

M45 83q0 5 5 5h43q5 0 5-5v-43q0-5-5-5h-43q-5 0-5 5z"

style="fill: gray"/>

</svg>