<?xml version="1.0" encoding="utf-8"?>
<!-- Svg Vector Icons : http://www.onlinewebfonts.com/icon -->
<!DOCTYPE svg PUBLIC "-//W3C//DTD SVG 1.1//EN" "http://www.w3.org/Graphics/SVG/1.1/DTD/svg11.dtd">
<svg version="1.1" xmlns="http://www.w3.org/2000/svg" xmlns:xlink="http://www.w3.org/1999/xlink" x="0px" y="0px" viewBox="0 0 1000 1000" enable-background="new 0 0 1000 1000" xml:space="preserve">
<metadata> Svg Vector Icons : http://www.onlinewebfonts.com/icon </metadata>
<g><g transform="translate(0.000000,343.000000) scale(0.100000,-0.100000)"><path d="M413.7,1668.9c-99.4-35.1-206.5-136.4-257.2-239.6l-46.8-93.5l-5.8-1042.3c-3.9-572.8,0-1061.8,5.8-1085.2c11.7-52.6,83.8-122.7,124.7-122.7c56.5,0,243.5-99.4,311.7-161.7c212.4-202.6,270.8-504.6,148.1-763.7c-62.3-132.5-226-282.5-352.6-329.3c-148.1-50.7-190.9-77.9-216.3-128.6c-19.5-37-25.3-290.3-25.3-1063.7c0-1137.8,2-1151.4,132.5-1297.5c134.4-148.1,185.1-161.7,703.3-167.5c249.4-3.9,475.4-2,500.7,3.9c27.3,7.8,64.3,29.2,85.7,50.7c37,37,39,66.2,39,409.1c0,413,11.7,463.7,116.9,506.5c46.8,19.5,70.1,19.5,116.9,0c105.2-42.9,116.9-95.5,116.9-494.9c0-196.8,5.8-374.1,11.7-391.6c31.2-77.9,99.4-87.7,631.2-87.7s600.1,9.7,631.2,87.7c5.8,17.5,11.7,194.8,11.7,391.6c0,399.4,11.7,452,116.9,494.9c46.8,19.5,70.1,19.5,118.8-2c99.4-40.9,114.9-107.1,114.9-502.6c0-192.9,5.8-364.3,11.7-381.8c31.2-77.9,99.4-87.7,631.2-87.7c531.9,0,600.1,9.7,631.2,87.7c5.8,17.5,11.7,192.9,11.7,389.6c0,196.8,7.8,379.9,19.5,407.2c9.7,29.2,48.7,66.2,87.7,83.8c64.3,31.2,72.1,31.2,136.4,0c91.6-42.9,105.2-109.1,105.2-514.3c0-356.5,9.7-403.3,91.6-434.5c68.2-27.3,1018.9-25.3,1093,0c33.1,11.7,68.2,40.9,79.9,64.3c13.6,25.3,25.3,190.9,27.3,426.7c5.8,354.6,9.7,387.7,44.8,424.7c66.3,64.3,150,70.1,218.2,11.7l62.3-52.6l5.8-397.4c5.8-383.8,7.8-399.4,50.6-442.3c42.9-44.8,46.8-44.8,596.2-44.8H8006l50.7,46.7l50.6,46.8v385.7c0,372.1,1.9,387.7,44.8,434.5c66.3,76,150,83.8,224,21.4l60.4-50.7l5.8-397.4c7.8-531.9-40.9-485.1,533.8-492.9c274.7-3.9,479.3,1.9,545.5,15.6c142.2,29.2,257.2,118.8,325.4,251.3l52.6,107.2v1083.2c0,1229.3,15.6,1124.1-167.5,1178.7c-296.1,87.7-489,360.4-471.5,664.3c19.5,288.3,192.9,510.4,475.4,600.1c179.2,58.4,165.6-40.9,159.8,1204l-5.8,1100.8l-58.5,95.5c-37,58.4-95.5,116.9-153.9,153.9l-95.4,58.4l-4551.1,3.9C1491,1692.2,466.3,1688.3,413.7,1668.9z M9539.2,1335.7l48.7-46.8V328.5V-632l-124.7-64.3c-216.3-113-387.7-311.7-471.5-547.5c-60.4-171.5-64.3-428.6-7.8-611.7c76-245.5,278.6-477.3,506.5-580.6l97.4-44.8v-960.5v-962.4l-48.7-46.7c-46.8-48.7-50.6-48.7-405.2-48.7h-360.4l-7.8,305.9c-5.8,268.8-13.6,317.6-50.6,387.7c-95.5,185.1-237.7,270.8-442.2,270.8c-210.4-2-350.7-93.5-436.4-282.5c-35.1-76-40.9-128.6-40.9-383.8v-298.1h-329.3h-329.2l-7.8,307.8c-5.8,296.1-7.8,309.8-64.3,409.1c-95.5,173.4-276.7,270.8-467.6,251.3c-177.3-17.5-319.5-116.9-391.6-276.7c-42.9-89.6-46.8-124.7-46.8-393.5v-298.1h-329.3h-329.2l-7.8,305.9c-5.8,298.1-7.8,311.7-62.3,411.1c-204.6,368.2-738.4,327.3-880.6-68.2c-17.5-48.7-25.3-173.4-27.3-360.4v-288.3h-331.2h-331.2v268.8c0,335.1-25.3,434.5-142.2,555.3c-251.3,257.2-683.8,161.7-804.6-175.3c-17.5-48.7-25.3-173.4-27.3-360.4v-288.3h-331.2h-331.2v268.8c0,337.1-27.3,440.3-144.2,557.2c-192.9,192.9-492.9,194.8-683.8,2c-120.8-120.8-146.1-214.3-146.1-549.4v-278.6H885.1c-346.8,0-366.3,1.9-409.1,42.9l-44.8,40.9v968.3v968.3l101.3,46.7c138.3,64.3,346.8,263,420.8,403.3c157.8,294.2,159.8,642.9,7.8,927.4c-74,140.3-282.5,344.8-416.9,409.1l-113,54.6v964.4v962.4l48.7,46.8l46.8,48.7h4482.9h4482.9L9539.2,1335.7z"/><path d="M1818.4,708.4c-13.6-5.8-37-35.1-52.6-64.3c-25.3-48.7-29.2-270.8-29.2-1548.9c0-1582,0-1580,87.7-1615.1c17.5-5.8,424.7-11.7,904-11.7H3601l40.9,44.8l42.9,44.8v1541.1v1543l-50.7,39c-50.7,40.9-70.1,40.9-921.5,39C2235.3,720.1,1832,714.2,1818.4,708.4z M3373.1-904.8v-1315.1h-652.7h-652.7v1315.1V410.3h652.7h652.7V-904.8z"/><path d="M4084.2,673.3l-48.7-46.8V-904.8v-1531.3l48.7-46.7l46.8-48.7h878.7h878.6l46.8,48.7l48.7,46.7v1531.3V626.5l-48.7,46.8l-46.8,48.7h-878.6h-878.7L4084.2,673.3z M5672-904.8v-1315.1h-662.4h-662.4v1315.1V410.3h662.4H5672V-904.8z"/><path d="M6396.7,708.4c-13.7-5.8-37-35.1-52.6-64.3c-25.3-48.7-29.2-270.8-29.2-1548.9c0-1582,0-1580,87.7-1615.1c17.5-5.8,424.7-11.7,904-11.7h872.8l40.9,44.8l42.9,44.8v1541.1v1543l-50.6,39c-50.7,40.9-70.2,40.9-921.5,39C6813.7,720.1,6410.4,714.2,6396.7,708.4z M7951.4-904.8v-1315.1h-652.7h-652.7v1315.1V410.3h652.7h652.7V-904.8z"/></g></g>
</svg>