<svg width="128px" height="128px">

<path d=
"M20 70q10 0 10 10q0 10-10 10q-10 0-10-10q0-10 10-10z
M20 75q-5 0-5 5q0 5 5 5q5 0 5-5q0-5-5-5z

M39 80q0-19-19-19q-2.5 0-2.5-2.5q0-2.5 2.5-2.5q24 0 24 24q0 2.5-2.5 2.5q-2.5 0-2.5-2.5zm14 0q0-33-33-33q-2.5 0-2.5-2.5q0-2.5 2.5-2.5q38 0 38 38q0 2.5-2.5 2.5q-2.5 0-2.5-2.5zm14 0q0-47-47-47q-2.5 0-2.5-2.5q0-2.5 2.5-2.5q52 0 52 52q0 2.5-2.5 2.5q-2.5 0-2.5-2.5zm14 0q0-61-61-61q-2.5 0-2.5-2.5q0-2.5 2.5-2.5q66 0 66 66q0 2.5-2.5 2.5q-2.5 0-2.5-2.5z"

style="fill: gray"/>

</svg>